<svg xmlns="http://www.w3.org/2000/svg" viewBox="0 0 960 1200" x="0px" y="0px"><path d="M600,720h60v30H540V720ZM360,840V750h30V720H330V840ZM690,690H660v30h30V840h30V270H690ZM660,240H630V180H600V420h30V270h60V240Zm-90-90H540V120H510V390h30V180h60V150ZM420,330H390v30h30v60h30V120H420ZM480,90H450v30h60V90ZM270,300v30H390V300Zm-30,60h30V330H240Zm30,330V660H240v30Zm30,30h30V690H270v30Zm60-330H300v30h60ZM300,600h60V570H300ZM210,390h30V360H210Zm30,270V630H210v30ZM180,480h30V390H180Zm0,150h30V510H180ZM300,420H270v60h30Zm-30,90v60h30V510Zm120,60V420H360V570ZM270,510V480H210v30Z"/><text x="0" y="975" fill="#000000" font-size="5px" font-weight="bold" font-family="'Helvetica Neue', Helvetica, Arial-Unicode, Arial, Sans-serif">Created by Dooder</text><text x="0" y="980" fill="#000000" font-size="5px" font-weight="bold" font-family="'Helvetica Neue', Helvetica, Arial-Unicode, Arial, Sans-serif">from the Noun Project</text></svg>