<svg xmlns="http://www.w3.org/2000/svg" version="1.1" xmlns:xlink="http://www.w3.org/1999/xlink" xmlns:svgjs="http://svgjs.com/svgjs" width="30" height="30"><svg width="30" height="30" viewBox="0 0 30 30" fill="none" xmlns="http://www.w3.org/2000/svg">
<mask id="SvgjsMask1000" style="mask-type:luminance" maskUnits="userSpaceOnUse" x="0" y="0" width="30" height="30">
<path d="M0 30L3.57746e-07 0L30 3.57746e-07L30 30L0 30Z" fill="white"></path>
<path d="M0 30L3.57746e-07 0L30 3.57746e-07L30 30L0 30Z" fill="white"></path>
</mask>
<g mask="url(#mask0_201_65)">
<path d="M2.71887e-08 9.42001L2.295 9.42001L2.295 11.7L4.575 11.7L4.575 9.42001L6.855 9.42001L6.855 7.14001L4.575 7.14001L4.575 4.84501L2.295 4.84501L2.295 7.14001L5.43775e-08 7.14001L2.71887e-08 9.42001Z" fill="black"></path>
<path d="M16.005 16.275L16.005 18.57L18.285 18.57L18.285 16.275L16.005 16.275Z" fill="black"></path>
<path d="M9.14999 16.275L9.14999 18.57L11.43 18.57L11.43 16.275L9.14999 16.275Z" fill="black"></path>
<path d="M4.57501 23.13L4.57501 25.425L6.85501 25.425L6.85501 23.13L4.57501 23.13Z" fill="black"></path>
<path d="M18.285 25.425L18.285 27.705L20.58 27.705L20.58 25.425L18.285 25.425Z" fill="black"></path>
<path d="M6.85501 25.425L6.85501 27.705L9.15001 27.705L9.15001 25.425L6.85501 25.425Z" fill="black"></path>
<path d="M2.29501 25.425L2.29501 27.705L4.57501 27.705L4.57501 25.425L2.29501 25.425Z" fill="black"></path>
<path d="M4.57501 27.705L4.57501 30L6.85501 30L6.85501 27.705L4.57501 27.705Z" fill="black"></path>
</g>
</svg><style>@media (prefers-color-scheme: light) { :root { filter: none; } }
</style></svg>