<svg width="24" height="30" viewBox="0 0 24 30" fill="none" xmlns="http://www.w3.org/2000/svg">
<mask id="mask0_201_68" style="mask-type:luminance" maskUnits="userSpaceOnUse" x="-6" y="0" width="30" height="30">
<path d="M-6 30L-6 0L24 -1.31134e-06L24 30L-6 30Z" fill="white"/>
<path d="M-6 30L-6 0L24 -1.31134e-06L24 30L-6 30Z" fill="white"/>
</mask>
<g mask="url(#mask0_201_68)">
<path d="M3.435 2.27999L3.435 4.56L5.715 4.56L5.715 2.27999L3.435 2.27999Z" fill="black"/>
<path d="M17.145 4.55998L17.145 6.85498L19.44 6.85498L19.44 4.55998L17.145 4.55998Z" fill="black"/>
<path d="M5.715 4.55998L5.715 6.85498L8.00999 6.85498L8.00999 4.55998L5.715 4.55998Z" fill="black"/>
<path d="M1.155 4.55998L1.155 6.85498L3.435 6.85498L3.435 4.55998L1.155 4.55998Z" fill="black"/>
<path d="M3.435 6.85501L3.435 9.13501L5.715 9.13501L5.715 6.85501L3.435 6.85501Z" fill="black"/>
<path d="M8.01001 11.415L8.01001 13.71L10.29 13.71L10.29 11.415L8.01001 11.415Z" fill="black"/>
<path d="M14.865 18.285L17.145 18.285L17.145 20.565L19.44 20.565L19.44 18.285L21.72 18.285L21.72 15.99L19.44 15.99L19.44 13.71L17.145 13.71L17.145 15.99L14.865 15.99L14.865 18.285Z" fill="black"/>
</g>
</svg>
