<svg width="30" height="30" viewBox="0 0 30 30" fill="none" xmlns="http://www.w3.org/2000/svg">
<path d="M22.3642 9.42847H18.6368V13.1428H22.3642V9.42847Z" fill="black"/>
<path d="M26.0916 20.5714H22.3642V24.2857H26.0916V28H29.8189V5.85171V2H26.0916V5.71429H22.3642V9.42857H26.0916V20.5714Z" fill="black"/>
<path d="M22.3642 16.8572H18.6368V20.5715H22.3642V16.8572Z" fill="black"/>
<path d="M7.45475 9.42847H3.72739V13.1428H7.45475V9.42847Z" fill="black"/>
<path d="M11.1821 20.5714H7.45474V24.2857H11.1821V28H14.9095V16.8571H18.6368V13.1429H14.9095V5.85171V2H11.1821V5.71429H7.45474V9.42857H11.1821V20.5714Z" fill="black"/>
<path d="M7.45475 16.8572H3.72739V20.5715H7.45475V16.8572Z" fill="black"/>
<path d="M3.72736 13.1429H0V16.8572H3.72736V13.1429Z" fill="black"/>
</svg>
