<svg xmlns="http://www.w3.org/2000/svg" viewBox="0 0 32 32" height="48" width="48"><title>content-files-quill-ink</title><g><polygon points="27.435 3.05 28.955 3.05 28.955 1.52 30.475 1.52 30.475 0 21.335 0 21.335 1.52 27.435 1.52 27.435 3.05" fill="#000000"></polygon><rect x="25.905" y="3.05" width="1.53" height="1.52" fill="#000000"></rect><rect x="24.385" y="4.57" width="1.52" height="1.53" fill="#000000"></rect><rect x="22.865" y="6.1" width="1.52" height="1.52" fill="#000000"></rect><rect x="21.335" y="7.62" width="1.53" height="3.05" fill="#000000"></rect><rect x="21.335" y="3.05" width="1.53" height="1.52" fill="#000000"></rect><rect x="19.815" y="10.67" width="1.52" height="1.52" fill="#000000"></rect><rect x="19.815" y="4.57" width="1.52" height="1.53" fill="#000000"></rect><rect x="18.285" y="1.52" width="3.05" height="1.53" fill="#000000"></rect><rect x="18.285" y="6.1" width="1.53" height="1.52" fill="#000000"></rect><rect x="16.765" y="12.19" width="3.05" height="1.53" fill="#000000"></rect><rect x="16.765" y="7.62" width="1.52" height="1.52" fill="#000000"></rect><rect x="16.765" y="3.05" width="1.52" height="1.52" fill="#000000"></rect><path d="M3.055,32h13.71V30.48h1.52v-6.1h-1.52v1.53H9.145V24.38H6.1V22.86H3.055v1.52H1.525v6.1h1.53Zm1.52-6.09H6.1v3.04h3.05v1.53H6.1V28.95H4.575Z" fill="#000000"></path><rect x="15.245" y="9.14" width="1.52" height="1.53" fill="#000000"></rect><rect x="15.245" y="4.57" width="1.52" height="1.53" fill="#000000"></rect><rect x="13.715" y="22.86" width="3.05" height="1.52" fill="#000000"></rect><polygon points="16.765 13.72 13.715 13.72 13.715 12.19 12.195 12.19 12.195 10.67 10.675 10.67 10.675 15.24 16.765 15.24 16.765 13.72" fill="#000000"></polygon><rect x="13.715" y="10.67" width="1.53" height="1.52" fill="#000000"></rect><rect x="13.715" y="6.1" width="1.53" height="1.52" fill="#000000"></rect><rect x="12.195" y="7.62" width="1.52" height="3.05" fill="#000000"></rect><polygon points="7.625 19.81 12.195 19.81 12.195 22.86 13.715 22.86 13.715 19.81 15.245 19.81 15.245 18.29 10.675 18.29 10.675 15.24 9.145 15.24 9.145 18.29 4.575 18.29 4.575 19.81 6.095 19.81 6.095 22.86 7.625 22.86 7.625 19.81" fill="#000000"></polygon></g></svg>