<?xml version="1.0" encoding="utf-8"?>
<!-- Generator: Adobe Illustrator 25.2.3, SVG Export Plug-In . SVG Version: 6.00 Build 0)  -->
<svg version="1.1" xmlns="http://www.w3.org/2000/svg" xmlns:xlink="http://www.w3.org/1999/xlink" x="0px" y="0px" viewBox="0 0 158.7 158.7" style="enable-background:new 0 0 158.7 158.7;" xml:space="preserve">
	<g id="Layer_1">
		<g id="Base">
			<g>
				<path class="st0" d="M113,81.8c-0.2-1.1-0.5-2-1-2.7V61.7l4.4-2.5L116,59L94.3,46.6c0.4-0.5,0.7-1,1.1-1.6
				c1.3-2.2,2.3-4.6,2.2-7.2c-0.1-3.3-1.6-6.3-3.9-8.4c-0.1-0.8-0.2-1.5-0.3-1.8c-0.1-0.5-0.3-1-0.5-1.5s-0.5-0.9-1-1.3
				c-0.7-0.7-1.7-1.1-2.7-1.1c-1-0.1-2,0.2-2.8,0.6c-0.4,0.2-0.7,0.5-1,0.7c-0.4,0.4-0.8,0.8-1.2,1.1c-0.1,0.1-0.2,0.2-0.3,0.3
				c-1.3,0.1-2.5,0.3-3.5,0.7c-0.5,0.2-1,0.4-1.4,0.7c0.1-0.1,0.1-0.1,0.2-0.2c1-0.6,2.2-1,3.2-1.3c-1.4-0.2-3.1-0.4-4.5,0
				c-1,0.3-1.6,1-2,1.9l0.1,1.1v0.2c0,0,0,0-0.1,0c-0.1-0.1-0.4-0.1-0.4-0.2c0-0.2-0.1-0.5,0.1-0.8c0.3-0.6,0.8-1.3,1.4-1.9
				c-1.1,0.3-2.1,0.7-2.8,1.4c-0.8,0.7-0.9,1.7-0.5,2.9c0,0.1,0.1,0.3,0.2,0.4c-0.4-0.1-0.7-0.4-0.8-0.7c-0.4-0.9,0-2,0.5-3
				c-1.1,1-1.8,2.2-1.8,3.3c0,1.1,0.7,2,2.5,3l-17.6,5.7c0,0,0-26,0-28.4c2.6-0.7,34.4-9,37.7-9.9v26.1l-0.7,0.2l0.1,0.4l0.2-0.1
				l0.8-0.3v-27l-0.3,0.1L56.2,10.8V11v1.8l-1.6,0.6v-2.1l-0.4,0.2L20.1,30.9v0.2L19.6,64l0.4-0.3l33.4-22v9.9
				c-0.3,0.4-0.6,0.8-1,1.3l-13.7,6.4c-0.1,0-0.1,0.1-0.1,0.2c0,0.1,0,0.1,0.1,0.2l0.8,0.4l-36.6,18l0.5,0.3L7.9,81l0,0v19.5h0.6
				V81.3l1.5,0.8l0,0v34.3h0.6v-34l31.2,17.8l-0.1,30.3h0.6l0.1-29.9l0.8,0.4l0.1-0.1l0.6-0.3v42h0.6v-42.3l9.1-5.2
				c0.4,2.2,1.3,6.8,2,10.5c0.4,2,0.7,3.8,0.9,4.8l2.4,15.2c0.1,0.4,0.1,0.8,0.2,1.3H59c-2.2-0.4-6.1-3.8-10.1-1.9
				c-2.5,1.2,1.2,4.3,2.3,5.1c1.2,0.9,2.5,1.7,3.8,2.6c1.3,0.8,2.6,1.6,3.9,2.4c3.2,2,7.2,5.3,11.2,3.2c0,0.3,0,0.7,0,0.7
				c-4.1,2.3-8.2-1.3-11.6-3.3c-3.7-2.2-8.1-4-10.5-7.8c-0.1-0.6-0.4-1.2-0.1-1.8c-0.5,0.6-0.1,2.1-0.1,2.1
				c2.4,3.8,6.9,5.6,10.5,7.8c3.9,2.4,7.3,5.6,11.9,3.1c0-1.8-0.7-5-0.8-6.8l-0.1,0.1v-0.1l-0.1-2l-0.1-1.5c-0.1-1.8,0-4.5,0.1-7.4
				c1.2,0.7,2.3,1.3,3.5,2c2.5,1.5,5.5,4,8.8,4.1v1h0.2v5.6c0,0,0.1,0.5,0.5,0.9c0.4,0.3,1,0.7,2.1,0.7c2.6,0,2.6-1.5,2.6-1.5v-8.1
				h0.3v-9.2l18.9-9.6V107l0.1-6.1l-0.7,0.3c0,0-17,8.1-19.8,9.5l-0.8-0.2l-9.8-4.9c-2.9-1.5-5.6-3-7.8-4.4c-2.5-1.6-4.4-3.1-5.7-4
				c-1.5-1.5-2.9-2.9-3.8-3.6c0.4,0.4,0.9,1,1.4,1.6v1.1l0.2,5.9l0.2,0.1c0,0,3.2,2.5,6.5,4.9c0.8,0.6,1.6,1.2,2.4,1.7
				c0.1,1.1,0.1,2.4,0.1,3.8c0,5.3-0.5,12.4-0.3,16.2l0.1,1.5l0.1,1.9c-0.3,0.3-0.8,0.5-1.3,0.5c-0.8,0.1-1.8,0-2.6-0.1
				c-0.5-0.1-1.2-0.3-1.9-0.6c-1.1-0.5-2.2-1-2.6-1.2c0-0.5-0.1-1.7-0.3-3c-0.1-0.8-0.2-1.5-0.3-2.1L57,110.3
				c-0.2-1-0.5-2.7-0.9-4.8c-0.7-3.8-1.7-8.6-2.1-10.7l10-5.7c0.8,0.7,1.6,1.4,2.3,2c0,0,0,0,0.1,0.1c0.6,0.5,1.1,0.8,1.4,1.1
				c0.2,0.1,0.4,0.2,0.5,0.2l0,0l0,0l0,0h0.1h0.1h-0.1c0.1,0,0.1,0,0.2,0h-0.1l0,0h0.1l0,0l0,0l0,0c0.1,0,0.1-0.1,0.2-0.1l0,0h0.1
				c0,0,0,0,0.1,0h0.1l0.1-0.1c0.1,0,0.2-0.1,0.3-0.1l0,0l0,0c0.3-0.2,0.6-0.4,1-0.6c0.2-0.1,0.3-0.2,0.5-0.3
				c-0.1,0.1-0.2,0.1-0.3,0.2l0.2-0.1l0.1-0.1c0.3-0.2,0.5-0.4,0.7-0.6l0,0c0,1.2,0.1,2.8,0.1,2.8l10.9,6.5c0.7-2.8,1.5-4.5,2.5-7.2
				c0.5-1.3,1.1-2.6,1.7-3.8c3.5-6.7,8.2-14.4,16.6-14.8c1.4-0.1,3.1,0.3,4.4,0.7v-2.1c0.1-3.3,0.1-6.6,0.2-8.6l1.3-0.7V77
				c-0.6-0.3-1.2-0.4-1.8-0.6c-3.8-0.7-8.6,1-11.2,4c-1.7,2-3,4.3-4,6.8c-1.5,3.6-2.6,7.5-3.7,11.3c-0.7,2.3-1.3,4.6-2,6.9
				c-0.3,1-0.6,2-0.8,3l-0.2,0.7l0.6-0.3c0,0,10.9-5.2,19-9.1c1.5-0.7,2.8-1.4,4-1.9v4.5h0.6v-4.8c0.5-0.3,1.1-0.5,1.5-0.7v13.8h0.6
				V96.5c0.6-0.3,1.1-0.6,1.4-0.7l0.2-0.1v-0.2c0.1-2.3,0.1-4.5,0-6.7C113.5,86.3,113.3,84.2,113,81.8z M76.3,113.1
				c1.8,0.9,3.6,1.7,5.1,2.4v5.3c-1.4,0.3-3.1,0-4.3-0.9c-0.2-0.1-0.3-0.3-0.5-0.4c-0.2-0.9-0.4-1.9-0.5-3c-0.1-1.2-0.2-2.5-0.3-3.7
				C76,112.9,76.1,113,76.3,113.1z M70.5,110c1.2,0.7,2.8,1.6,4.6,2.5c-0.1,0.6-0.1,1.3-0.2,1.9h-0.2c-1-0.2-3.7-1.3-5.4-2l0,0
				c0-1.2,0-2.3-0.1-3.2C69.8,109.5,70.2,109.7,70.5,110z M69.2,119.8c1.3,0.9,2.7,1.6,4,2.5c2.4,1.5,5.2,3.6,8.1,4v0.8
				c-3.1-0.3-6-2.7-8.5-4.2c-1.2-0.7-2.5-1.4-3.7-2.1C69.2,120.4,69.2,120.1,69.2,119.8z M82.3,35.9c0.2-1.3,0.5-2.5,0.8-3.7
				c0.1-0.4,0.3-0.9,0.4-1.3c0.6-1.7,1.4-3.2,2.6-4.5c0.8-0.9,1.5-1.3,2.1-1.6c1-0.4,1.9-0.3,2.6-0.1c0.8,0.1,1.3,0.6,1.7,1.2
				c0.6,0.9,0.8,2.2,0.9,3l0,0l0,0l0,0c-0.2-0.8-0.4-2-1-2.9c-0.4-0.5-0.9-1-1.6-1.1s-1.5-0.2-2.5,0.2c-0.5,0.2-1.1,0.7-1.7,1.3l0,0
				c-0.1,0.1-0.1,0.2-0.2,0.3c-0.8,1-1.5,2.1-1.9,3.3c-0.2,0.4-0.3,0.8-0.4,1.2c-0.1,0.3-0.2,0.7-0.3,1l0,0c-0.5,2-0.8,4.1-1.1,6.1
				c-0.2-0.1-0.5-0.1-0.7-0.1l0,0C82,37.4,82.1,36.7,82.3,35.9z M91.8,27.9c-1.4-0.8-2.9-1.4-4.6-1.5c0.1-0.1,0.3-0.2,0.4-0.3
				c0.5-0.3,1-0.5,1.6-0.5c0.5,0,1.1,0.1,1.5,0.5c0.3,0.3,0.5,0.5,0.7,0.8C91.5,27.2,91.7,27.6,91.8,27.9z M83.2,40.3
				c-0.3-0.5-0.7-0.9-1.1-1.1c0.7,0,1.4,0.7,1.8,1.6c0.4,0.8,0.6,1.8,0.6,2.9c0,1.1-0.2,2.1-0.6,2.9c-0.4,0.9-1.1,1.6-1.8,1.6
				c0.4-0.2,0.8-0.6,1.1-1.1c0.6-0.9,0.9-2.1,0.9-3.4C84.1,42.4,83.7,41.2,83.2,40.3z M75.9,30.7L75.9,30.7
				C76,30.6,76,30.6,75.9,30.7L75.9,30.7z M75.6,31.3c0,0.1,0,0.1,0,0.2l0,0C75.6,31.5,75.6,31.4,75.6,31.3z M56.9,40l17.9-5.8
				c0.5,0.2,1.2,0.4,1.9,0.6c0,0.2,0,0.6,0,0.8v1.2l-0.3,5.7l-12.6,5.9v0.1L63,48.1h-0.1l-5.5,2.6l-0.6-0.3L56.9,40z M20.1,62.9
				c0.1-3.9,0.5-29.5,0.5-31.7L54,12.4c0,3.7,0,28.2,0,28.2S24,60.3,20.1,62.9z M39.1,59.5l12.7-5.9c-0.5,0.7-1,1.2-1,1.2
				c1.8,0.7,3.9,0.8,5.8,0.2c2.4-0.8,2.8-2.4,2.9-3.3l-1.8-0.8l5.2-2.4L75.4,54l-12.3,6.6l-2-2.4l-0.1,0l-12,6l0,0L39.1,59.5z
				 M56.7,75.9c-0.1,0-0.1,0.1-0.2,0.1c-0.2,0.1-0.5,0.2-0.7,0.4c-0.3,0.1-0.5,0.4-0.7,0.6c-0.5-0.2-1-0.5-1.5-0.7
				c-0.4-0.2-0.7-0.5-1-0.8c-0.4-0.4-0.7-0.7-0.8-0.9c-0.3-0.4-0.3-0.5-1-1.4c-0.2-0.2-0.4-0.4-0.6-0.5c-0.4-0.2-0.9-0.3-1.4-0.5
				c-0.4-0.1-0.8-0.2-1.1-0.5c0.1,0,0.1-0.1,0.2-0.1c0.1,0,0.2-0.1,0.4-0.1c0.4,0,0.7,0,1.1,0.1c0.5,0.1,1,0.3,1.6,0.5
				c0,0,0.3-0.2,0.1-0.3c0,0-0.1-0.1-0.2-0.1c-0.6-0.3-1.9-1.1-2.6-1.2c-0.2-0.1-0.5-0.2-0.7-0.5c-0.1-0.2-0.2-0.4-0.3-0.6
				c0.9,0.1,1.9,0.3,2.8,0.7c0.4,0.2,0.7,0.3,1.1,0.5c0.5,0.3,1,0.7,1.5,1.1c0.1,0.1,0.3,0.3,0.4,0.5c0.2,0.2,0.3,0.5,0.5,0.7
				c-0.2-0.3-0.4-0.6-0.6-0.9c-0.1-0.1-0.2-0.2-0.3-0.4c-0.4-0.5-0.9-0.9-1.4-1.2c-0.4-0.2-0.7-0.4-1.1-0.6c-0.7-0.3-1.3-0.5-2-0.6
				C48.1,69,48,68.9,48,68.8s-0.1-0.2-0.1-0.3c0.3,0,0.6,0,1,0c0.2,0,0.3,0,0.5,0c0.3,0,0.5,0.1,0.8,0.2c0.4,0.1,0.7,0.4,1.1,0.6
				c0.5,0.2,1,0.5,1.5,0.8c0.3,0.2,0.6,0.4,0.8,0.7c0.5,0.6,0.6,0.8,0.9,1.3c0.1,0.1,0.2,0.3,0.4,0.5l0,0c-0.5-0.7-0.5-0.9-0.8-1.3
				c-0.1-0.2-0.2-0.3-0.4-0.5c-0.2-0.3-0.5-0.6-0.9-0.8c-0.5-0.3-1-0.6-1.5-0.8c-0.3-0.2-0.6-0.4-1-0.5c0,0,0,0,0-0.1
				c-0.1-0.1-0.1-0.2-0.1-0.3v-0.1c0.9,0.2,1.5,0.4,1.9,0.5c0.4,0.2,0.8,0.3,1.3,0.6c0.4,0.2,0.8,0.6,1.1,1c0.2,0.3,0.4,0.6,0.6,1
				c0.2,0.4,0.4,0.7,0.6,1l0,0l0,0c-0.1-0.3-0.2-0.7-0.4-1.1c-0.1-0.3-0.2-0.5-0.4-0.7l0.1-0.1c0.1-0.4,0.2-0.7,0.3-0.8
				c0.2,0.5,0.9,2.4,1.9,4.1c0.4,0.7,0.8,1.3,1.2,1.8C57.9,75.3,57.4,75.5,56.7,75.9l0.2-0.1C56.8,75.8,56.7,75.8,56.7,75.9z
				 M57.3,73.3c-1.1-2-1.8-4.2-1.8-4.2V69h-0.1c0,0-0.2-0.2-0.5,0.2c-0.1,0.1-0.2,0.3-0.3,0.7c-0.3-0.4-0.7-0.8-1.2-1.1
				c-0.6-0.3-0.9-0.5-1.4-0.6c-0.5-0.2-1.1-0.3-2.2-0.6h-0.1l-0.1,0.1c0,0-0.1,0.1,0,0.4c0,0,0,0.1,0.1,0.2
				c-0.2-0.1-0.4-0.1-0.6-0.2c-0.2,0-0.3,0-0.5,0c-0.4,0-0.8,0-1.2,0h-0.2v0.2c0,0,0,0.2,0.1,0.5c0,0.1,0.1,0.2,0.2,0.3
				C47.4,69,47.2,69,47,69h-0.2v0.2c0,0.4,0.2,0.7,0.4,0.9c0.2,0.3,0.5,0.5,0.8,0.6s0.9,0.4,1.4,0.7c-0.2,0-0.4-0.1-0.5-0.1
				c-0.3-0.1-0.6-0.1-0.9,0c-0.2,0-0.3,0.1-0.5,0.1c-0.1,0.1-0.3,0.1-0.4,0.3L47,71.8l0.1,0.1c0.4,0.4,0.9,0.5,1.4,0.7
				c0.5,0.1,1,0.2,1.4,0.4c0.2,0.1,0.4,0.2,0.5,0.4c0.8,0.9,0.8,1.1,1,1.4c0.1,0.2,0.4,0.4,0.8,0.9c0.3,0.3,0.7,0.6,1.1,0.9
				c0.1,0.1,0.2,0.1,0.4,0.2l-1.5,0.9l-11.6,6.5l-9.1-10.8L61,58.6l7.9,9.7l-9.5,5.3l-1.5,0.7C57.7,74,57.5,73.6,57.3,73.3z
				 M53.4,94.5L53.4,94.5L53.4,94.5l-10.3,5.9L4.2,78.2l36-17.8v-0.1l8.5,4.1l-1,0.5l-8-3.9l-0.2,0.4l7.6,3.7l-16,8l0.1,0.2l0,0
				L31,73.1v5.4l9.5,5.8v0.1l0.1-0.1l11.7-6.5c0,0,1.5-0.9,1.6-1c0.3,0.1,0.5,0.3,0.8,0.4c-0.3,0.4-0.4,0.7-0.4,0.7s1.5,2.2,1.6,2.4
				c0.8,1.1,1.6,2,2.5,3.1L59,84l0,0c0.1,0.1,0.1,0.1,0.2,0.2l0,0l0,0l0,0c0.5,0.6,1,1.2,1.6,1.8l0,0c0.9,0.9,1.8,1.8,2.7,2.6
				L53.4,94.5z M58.5,75.2L58.5,75.2L58.5,75.2L58.5,75.2z M73.2,61.5L73.2,61.5c-0.4-0.3-0.7-0.5-1-0.6c-0.2-0.1-0.3-0.1-0.4-0.1
				c0.1,0,0.3-0.1,0.6-0.1c0.3,0,0.7,0,1.3-0.1C73.5,60.9,73.4,61.2,73.2,61.5z M74.6,59.4c-0.1,0-0.1-0.1-0.2-0.1
				c-0.6-0.2-1.2-0.3-1.6-0.4c-0.2,0-0.3-0.1-0.3-0.1c-0.1-0.1-0.1-0.2-0.2-0.2c0,0,0-0.1-0.1-0.1l1.1-0.1c0.1,0,0.3,0,0.6,0
				c0.3,0,0.8,0.1,1.3,0.2C75,58.9,74.8,59.1,74.6,59.4z M75.5,58.5c-0.6-0.1-1.1-0.2-1.5-0.2c-0.3,0-0.4,0-0.6,0l0.1-0.1v-0.6
				c0.3,0.1,1,0.2,1.7,0.3c0.3,0.1,0.6,0.1,0.8,0.2C75.8,58.1,75.6,58.3,75.5,58.5z M76.3,57.7c-0.1,0-0.1,0.1-0.2,0.2
				c-0.1,0-0.2-0.1-0.4-0.1v-0.1l-0.1-0.4c0.2,0.1,0.6,0.1,1,0.2C76.6,57.5,76.4,57.6,76.3,57.7z M76.9,57.3
				c-0.7-0.2-1.4-0.3-1.4-0.3h-0.2l0.1,0.2l0.2,0.6c-0.1,0-0.2-0.1-0.4-0.1c-0.9-0.2-1.8-0.4-1.8-0.4h-0.1v0.1v0.8
				c0,0,0,0.1,0.1,0.1l-1.5,0.1l0.1,0.1c0,0,0.1,0.1,0.1,0.3c0,0.1,0.1,0.2,0.2,0.3l0,0l-1.4,1.1c-0.4,0.3-0.5,0.7-0.5,1.2
				c0.1,0.4,0.3,0.8,0.8,1l1.5,0.6c-0.5,1.5-0.9,3-1,4.7c-0.6,1.7-1.5,4.3-2.9,6.4c-0.1,0.2-0.2,0.4-0.4,0.5
				c-0.1,0.2-0.3,0.4-0.4,0.5s-0.2,0.3-0.3,0.4c0,0,0,0,0-0.1l-0.1,0.1c-0.1,0.1-0.1,0.2-0.2,0.3v0.1l0,0c-0.9,1.3-2.1,3.1-2.6,3.4
				l0,0l0,0l0,0l-0.1,0.1h-0.1c-0.5-0.3-1.7-0.8-2-1c-0.9-0.8-1.3-1-2.2-1.9l-1.3-1.2c0,0,0,0-0.1,0l0,0h-0.1l0,0
				c-0.1,0-0.2,0-0.3,0l0,0h-0.1c-0.1-0.2-0.2-0.3-0.4-0.5l1.4-0.7l9.9-5.5l-0.2-0.2l-6-7.4l12.6-6.8c0.1,0,0.1-0.1,0.1-0.2
				s0-0.1-0.1-0.2l-11.6-5.1l11.9-5.6v0.1c0,0.6,0,1.1,0,1.7c0,0.6,0,1.2,0,1.7l0.1,3.6l0.1,1l0.1,1.2h0.2c0.3,0,0.7,0,1.1,0
				c0.6-0.1,1.2-0.2,1.6-0.2c0.3-0.1,0.6-0.1,1-0.2c0.4-0.1,0.8-0.2,1.1-0.3c0,0.1,0,0.1,0.1,0.2c0,0.1,0.1,0.3,0.1,0.3l1,2.4
				l0.1,0.2C80.8,55.3,78.7,56,76.9,57.3z M94.1,53.5c-0.4,0.1-0.8,0.3-1.3,0.4c-2.9,0.5-2.9,0.3-5.8,0.5c-1.2,0.1-2.5,0.2-3.7,0.4
				l-0.1-0.3l-1-2.4L82,51l-0.3,0.1c-0.5,0.1-0.9,0.3-1.4,0.4c-0.3,0.1-0.6,0.1-0.9,0.2c-0.5,0.1-1,0.2-1.6,0.2c-0.3,0-0.6,0-0.8,0
				l0-0.6v-1.1l-0.1-3.6c0-0.6,0-1.1,0-1.7c0-0.6,0-1.1,0.1-1.7l0.4-6.5v-1.2c0-0.1,0-0.4,0-0.6c0,0,0,0,0.1,0c0.4,1.3,1,2.7,1.8,4
				l0.3,0.5l0.2-0.1c-0.4,0.2-0.7,0.6-0.9,1c-0.6,0.9-0.9,2.1-0.9,3.4c0,1.3,0.4,2.6,0.9,3.4c0.3,0.4,0.6,0.7,0.9,1
				c0.6,0.8,1.4,1.2,2.2,1.2c1,0,1.9-0.6,2.5-1.6c0.3-0.4,0.5-1,0.7-1.6c0.5,0.6,0.8,1.1,1.9,2.3c2.3,2.4,2.9,3.1,2.9,3.1l1.4-1.6
				c0.6-0.8,1.2-1.4,1.8-2c0.1,0.3,0.2,0.6,0.2,0.8l0.3,1.2c0.1,0.5,0.3,0.8,0.4,1.1c0.2,0.5,0.4,0.9,0.7,1.6c0,0.1,0.1,0.2,0.1,0.3
				C94.9,53.2,94.2,53.4,94.1,53.5z M109.9,77V62.9l1.5-0.8v16.2C111,77.7,110.5,77.3,109.9,77z M108.1,63.3c0-0.9,0-1.4,0-1.4
				c-1.5-5.5-7.3-11.4-13.4-10.8c0-0.1-0.1-0.2-0.1-0.3c-0.1-0.3-0.2-0.6-0.4-1.1L94,48.6c-0.1-0.3-0.2-0.8-0.3-1.2
				c0.1-0.1,0.2-0.3,0.4-0.4c7,4,19,10.8,21.3,12.1L108.1,63.3z" />
				<path class="st0" d="M56.3,76c-0.2,0.1-0.4,0.2-0.6,0.3c0.3-0.2,0.5-0.3,0.7-0.4L56.3,76z" />
				<polygon class="st0" points="59.3,84.3 59.3,84.3 59.5,84.6 			" />

				<rect x="2.6" y="47.5" transform="matrix(1.594349e-02 -0.9999 0.9999 1.594349e-02 -29.8074 65.2392)" class="st0" width="31.3" height="0.5" />
			</g>
		</g>
		<g id="Shades">
			<g id="Layer5">
				<rect x="42.1" y="100.1" class="st1" width="1.7" height="47.2" />
				<g transform="matrix(0.984881,0,0,1.05844,370.573,-241.011)">
					<polyline class="st1" points="-263.1,302.2 -263.1,286 -264.8,287 -264.8,300.8 				" />
				</g>
				<g transform="matrix(0.984881,0,0,1.05844,370.573,-241.011)">
					<polygon class="st1" points="-264.8,319.2 -264.8,334.1 -263.1,334.1 -263.1,318.3 				" />
				</g>
				<g transform="matrix(1.00216,0,0,0.68968,-128.453,-166.468)">
					<rect x="146.6" y="293.5" class="st1" width="1.7" height="32.5" />
				</g>
				<g transform="matrix(0.407363,-0.915629,0.204114,0.0908101,55.6085,724.441)">
					<polygon class="st1" points="599.2,-1275.4 597.6,-1275.4 597.8,-1231 599.2,-1228.2 				" />
				</g>
				<g transform="matrix(1.00216,0,0,0.605573,-183.411,162.976)">
					<rect x="191.3" y="-125.3" class="st1" width="1.7" height="28.6" />
				</g>
			</g>
		</g>
		<g id="Screen">
			<g transform="matrix(1,0,0,1,-73.2697,-383.568)">
				<path class="st2" d="M127.5,395.6l-33.7,19l-0.6,32.2L128,424L127.5,395.6z" />
			</g>
		</g>
	</g>
	<g id="Wormhole">
		<g>
			<g>
				<path class="st3" d="M52.2,28.3c-0.1,1.5,0,3.1,0.2,4.9c0.2-0.7,0.3-2,0.4-2.8c0-0.2,0-0.4,0.1-0.5l0,0c0.3-1.3,0.8-2.6,1.4-3.9
				l-0.1-7.7c-0.1,0.2-0.1,0.4-0.2,0.7c-0.6,2.2-1.1,4.4-1.4,6.5C52.3,26.3,52.2,27.3,52.2,28.3z" />
			</g>
			<path id="v" class="st3" d="M53.8,33c-0.7,0.2-1.3,0.5-1.7,1l0,0C52.5,33.5,53.1,33.2,53.8,33c0.2-0.1,0.3-0.1,0.5-0.2l-0.1-6.9
			c-0.6,1.3-1,2.5-1.4,3.8c0,0.1,0,0.3-0.1,0.5c-0.1,0.9-0.3,2.2-0.4,2.9l0,0c0,0,0,0,0,0l0,0c-0.2-1.8-0.3-3.5-0.2-5
			c0.1-1,0.2-2,0.3-2.9c0.3-2.1,0.8-4.4,1.4-6.5l0,0l0,0c0.1-0.3,0.2-0.5,0.2-0.8L54,12l-3.1,1.8c-0.1,0.7-0.2,1.3-0.2,2
			c-0.3,2.5-0.4,5.1-0.3,7.5c0,2.5,0.2,4.9,0.5,7.1c0.2,1.5,0.5,3,0.8,4.5l0,0c-0.3-1.4-0.6-2.9-0.8-4.5c-0.3-2.3-0.5-4.7-0.5-7.1
			c0-2.5,0.1-5,0.3-7.5c0.1-0.7,0.1-1.3,0.2-2L45.3,17c0.4,2.4,0.9,4.9,1.4,7.2l0,0c-0.6-2.3-1.1-4.8-1.4-7.2l0,0l-6.9,4
			c0.3,0.5,0.6,1,0.9,1.4c1.1,1.8,2.3,3.7,3.5,5.5c1.2,1.8,2.4,3.6,3.7,5.3c1.3,1.7,2.4,3.2,3.6,4.8l0,0.1c-1.3-1.6-2.4-3.1-3.6-4.8
			c-1.2-1.7-2.5-3.5-3.7-5.3c-1.2-1.8-2.4-3.6-3.5-5.5c-0.3-0.5-0.6-1-0.9-1.4L27,27.5c0.6,0.2,1.2,0.5,1.8,0.7
			c1.7,0.7,3.5,1.5,5.3,2.4c1.8,0.9,3.5,1.8,5.3,2.8c1.7,1,3.5,2,5.1,3.1c1.7,1.1,3.1,2,4.6,3.2l0,0.1c-1.5-1.1-2.9-2.1-4.6-3.2
			c-1.7-1.1-3.4-2.1-5.1-3.1c-1.7-1-3.5-1.9-5.3-2.8c-1.8-0.9-3.6-1.7-5.3-2.4c-0.6-0.2-1.2-0.5-1.8-0.7l-6.4,3.6l-0.2,11.1
			c1.4-0.5,2.8-1,4.3-1.4c2.2-0.6,4.4-1,6.6-1.3c2.1-0.3,4.3-0.4,6.3-0.4c2,0,4,0.2,5.9,0.5c1.9,0.3,3,0.5,4.7,1.2l0,0.1
			c-1.7-0.6-2.8-0.8-4.7-1.2c-1.9-0.3-3.9-0.5-5.9-0.5c-2.1,0-4.2,0.1-6.3,0.4c-2.2,0.3-4.4,0.7-6.6,1.3c-1.4,0.4-2.9,0.8-4.3,1.4
			l-0.2,13.1c1.7-1.6,3.4-3.1,5.1-4.4c2.1-1.6,4.3-3.1,6.4-4.3l0,0c2.7-1.5,3.4-1.8,5.8-2.7L38,44c0.1,0,0.2-0.1,0.4-0.1
			c1.4-0.5,2.7-0.8,4-1.1c0,0,0,0,0,0c0.2,0,0.5-0.1,0.7-0.1c0.2,0,0.5-0.1,0.7-0.1c1.2-0.2,2.3-0.2,3.4-0.2l0,0.1
			c-1.1,0-2.3,0-3.4,0.2c-1.8,0.3-3.8,0.7-5.8,1.5l-0.3,0.1c-2.4,0.9-3.1,1.2-5.8,2.7l0,0c-2.1,1.2-4.3,2.6-6.4,4.3
			c-1.7,1.3-3.5,2.8-5.2,4.4l-0.1,7.5l9.1-6c0.4-0.6,0.9-1.2,1.3-1.7c1.6-2.1,3.2-3.9,4.9-5.5c1.3-1.3,3-2.5,4.5-3.6
			c0.1-0.1,0.3-0.2,0.4-0.3l0,0l0,0c1.6-1,4.6-2.3,6.1-2.8l0,0.1c-1.5,0.5-4.5,1.7-6.1,2.8c-0.1,0.1-0.2,0.2-0.4,0.3
			c-1.5,1.1-3.2,2.3-4.5,3.6c-1.7,1.6-3.3,3.4-4.9,5.5c-0.4,0.5-0.8,1.1-1.2,1.6l10.8-7.1c0.4-0.6,0.7-1.2,1.1-1.8l0,0
			c0-0.1,0.3-0.6,1.1-1.4c0.7-0.8,2-1.9,3.9-3.2l0,0.1c-3.7,2.4-4.9,4.5-4.9,4.5l0,0l0,0c-0.4,0.5-0.7,1.1-1.1,1.7l7.3-4.8
			c0-0.3-0.1-0.5-0.1-0.8c-0.1-0.9-0.1-1.6,0-2.2l0,0c-0.1,0.6-0.1,1.3,0,2.2c0,0.2,0.1,0.5,0.1,0.8l7-4.6l-0.1-7.6
			C54.2,32.9,54,33,53.8,33z M46.7,24.2c0.6,2.3,1.2,4.6,2,6.8l0,0C47.9,28.9,47.3,26.6,46.7,24.2L46.7,24.2z M50.9,36.5
			c-0.9-1.9-1.4-3.3-2.2-5.5l0,0C49.5,33.3,50,34.6,50.9,36.5L50.9,36.5z" />
		</g>
	</g>
	<g id="Circle">
		<path class="st4" d="M66.4,18.2c2.3-15.8-7-21.9-21.2-13.7c-14.9,8.6-30,29.8-33.1,47.4c-3.2,18,7.6,24,23.4,13.5" />
	</g>
</svg>